<svg width="273" height="85" viewBox="0 0 273 85" fill="none" xmlns="http://www.w3.org/2000/svg">
<path d="M56.3709 16.3398L59.833 23.961L41.3397 32.2761L43.6526 37.6884L62.2759 29.0581L65.5847 36.5098L71.0591 21.3464L56.3709 16.3398Z" fill="white"/>
<path d="M43.2656 52.6541V45.481L60.7388 37.5107V44.2854L43.2656 52.6541Z" fill="white"/>
<path d="M23.7041 22.3782L45.0666 35.3636" stroke="white" stroke-width="5.45073"/>
<path d="M43.3848 65.8115V59.3836L50.6917 55.373V61.6361L43.3848 65.8115Z" fill="white"/>
<path d="M35.9983 65.5226C31.1489 64.5454 25.8229 62.1983 22.2999 58.7257C18.7768 55.2531 16.3428 50.8286 15.2958 45.9938C14.2487 41.1591 14.6342 36.124 16.4048 31.505C18.1755 26.8859 21.0862 22.9958 25.0968 20.0998L28.8904 25.008C25.8562 27.1989 23.5267 30.227 22.1871 33.7215C20.8474 37.2161 20.5558 41.0254 21.348 44.6831C22.1401 48.3409 23.9816 51.6882 26.647 54.3154C29.3123 56.9426 32.3295 58.8783 35.9983 59.6176L35.9983 65.5226Z" fill="white"/>
<path d="M114.89 13.3387V38.2432H108.823V23.3076L103.253 38.2432H98.3576L92.7523 23.2721V38.2432H86.6859V13.3387H93.8521L100.841 30.5803L107.759 13.3387H114.89ZM132.095 38.4915C129.753 38.4915 127.601 37.9475 125.638 36.8596C123.698 35.7716 122.149 34.258 120.99 32.3186C119.855 30.3556 119.288 28.156 119.288 25.72C119.288 23.2839 119.855 21.0962 120.99 19.1569C122.149 17.2175 123.698 15.7038 125.638 14.6159C127.601 13.5279 129.753 12.984 132.095 12.984C134.436 12.984 136.576 13.5279 138.516 14.6159C140.479 15.7038 142.016 17.2175 143.128 19.1569C144.263 21.0962 144.831 23.2839 144.831 25.72C144.831 28.156 144.263 30.3556 143.128 32.3186C141.992 34.258 140.455 35.7716 138.516 36.8596C136.576 37.9475 134.436 38.4915 132.095 38.4915ZM132.095 32.9572C134.081 32.9572 135.666 32.295 136.848 30.9705C138.055 29.646 138.658 27.8959 138.658 25.72C138.658 23.5205 138.055 21.7703 136.848 20.4695C135.666 19.145 134.081 18.4828 132.095 18.4828C130.084 18.4828 128.476 19.1332 127.27 20.434C126.087 21.7348 125.496 23.4968 125.496 25.72C125.496 27.9195 126.087 29.6815 127.27 31.006C128.476 32.3068 130.084 32.9572 132.095 32.9572ZM161.048 38.4915C158.707 38.4915 156.554 37.9475 154.591 36.8596C152.652 35.7716 151.103 34.258 149.944 32.3186C148.809 30.3556 148.241 28.156 148.241 25.72C148.241 23.2839 148.809 21.0962 149.944 19.1569C151.103 17.2175 152.652 15.7038 154.591 14.6159C156.554 13.5279 158.707 12.984 161.048 12.984C163.389 12.984 165.53 13.5279 167.469 14.6159C169.432 15.7038 170.97 17.2175 172.081 19.1569C173.216 21.0962 173.784 23.2839 173.784 25.72C173.784 28.156 173.216 30.3556 172.081 32.3186C170.946 34.258 169.409 35.7716 167.469 36.8596C165.53 37.9475 163.389 38.4915 161.048 38.4915ZM161.048 32.9572C163.035 32.9572 164.619 32.295 165.802 30.9705C167.008 29.646 167.611 27.8959 167.611 25.72C167.611 23.5205 167.008 21.7703 165.802 20.4695C164.619 19.145 163.035 18.4828 161.048 18.4828C159.038 18.4828 157.429 19.1332 156.223 20.434C155.041 21.7348 154.449 23.4968 154.449 25.72C154.449 27.9195 155.041 29.6815 156.223 31.006C157.429 32.3068 159.038 32.9572 161.048 32.9572ZM200.502 38.2432H194.436L184.29 22.8819V38.2432H178.223V13.3387H184.29L194.436 28.771V13.3387H200.502V38.2432ZM101.196 45.5161V48.1414H90.4464V56.4783H99.1736V59.1036H90.4464V70.2432H87.218V45.5161H101.196ZM109.387 45.5161V70.2432H106.159V45.5161H109.387ZM135.395 70.2432H132.167L119.182 50.5538V70.2432H115.954V45.4806H119.182L132.167 65.1346V45.4806H135.395V70.2432ZM156.579 64.7443H145.794L143.807 70.2432H140.402L149.342 45.658H153.067L161.971 70.2432H158.565L156.579 64.7443ZM155.656 62.1191L151.186 49.6314L146.716 62.1191H155.656ZM186.373 70.2432H183.145L170.16 50.5538V70.2432H166.932V45.4806H170.16L183.145 65.1346V45.4806H186.373V70.2432ZM191.734 57.8619C191.734 55.4495 192.278 53.2854 193.366 51.3697C194.454 49.4303 195.932 47.9167 197.801 46.8287C199.693 45.7408 201.786 45.1968 204.08 45.1968C206.776 45.1968 209.13 45.8472 211.14 47.148C213.15 48.4488 214.617 50.2936 215.539 52.6823H211.672C210.986 51.1923 209.993 50.0453 208.692 49.2411C207.415 48.437 205.878 48.0349 204.08 48.0349C202.354 48.0349 200.804 48.437 199.433 49.2411C198.061 50.0453 196.985 51.1923 196.204 52.6823C195.424 54.1487 195.034 55.8752 195.034 57.8619C195.034 59.8249 195.424 61.5514 196.204 63.0415C196.985 64.5078 198.061 65.6431 199.433 66.4472C200.804 67.2513 202.354 67.6534 204.08 67.6534C205.878 67.6534 207.415 67.2631 208.692 66.4827C209.993 65.6785 210.986 64.5315 211.672 63.0415H215.539C214.617 65.4065 213.15 67.2395 211.14 68.5403C209.13 69.8174 206.776 70.456 204.08 70.456C201.786 70.456 199.693 69.9239 197.801 68.8596C195.932 67.7716 194.454 66.2698 193.366 64.3541C192.278 62.4384 191.734 60.2743 191.734 57.8619ZM224.637 48.1414V56.4074H233.648V59.0681H224.637V67.5824H234.713V70.2432H221.409V45.4806H234.713V48.1414H224.637Z" fill="white"/>
</svg>
