<svg width="368" height="368" viewBox="0 0 368 368" fill="none" xmlns="http://www.w3.org/2000/svg">
<path d="M367.64 180.32C367.64 156.64 362.976 133.192 353.914 111.314C344.852 89.437 331.57 69.5587 314.826 52.8144C298.081 36.0701 278.203 22.7878 256.325 13.7259C234.448 4.664 211 -0.00012207 187.32 -0.00012207L187.32 180.32H367.64Z" fill="#D8E8E8"/>
<path d="M366.64 183.32C366.64 221.4 354.585 258.502 332.202 289.309C309.819 320.117 278.258 343.047 242.042 354.815C205.826 366.582 166.814 366.582 130.598 354.815C94.382 343.047 62.8208 320.117 40.438 289.309L186.32 183.32H366.64Z" fill="#F7AD19"/>
<path d="M186.32 0.00012207C153.065 0.00012207 120.457 9.19635 92.1027 26.5721C63.7481 43.9478 40.7508 68.8261 25.6534 98.4565C10.5559 128.087 3.94635 161.315 6.55551 194.468C9.16467 227.62 20.8909 259.406 40.4377 286.31L186.32 180.32L186.32 0.00012207Z" fill="#406D96"/>
</svg>
