<svg width="124" height="124" viewBox="0 0 124 124" fill="none" xmlns="http://www.w3.org/2000/svg">
<path d="M5.43607 43.7451C1.04646 59.1224 2.94525 75.6137 10.7147 89.591C18.4842 103.568 31.4879 113.887 46.8652 118.276L60.7719 62.6611L5.43607 43.7451Z" fill="#D8E8E8"/>
<path d="M6.21838 41.2447C10.1024 30.2318 17.1009 20.5838 26.3636 13.4725C35.6264 6.36123 46.7548 2.0927 58.3972 1.18543C70.0396 0.278155 81.695 2.77118 91.9476 8.36167C102.2 13.9522 110.609 22.3996 116.152 32.6778C121.695 42.956 124.134 54.6227 123.174 66.2608C122.213 77.8989 117.893 89.0076 110.739 98.2375C103.585 107.467 93.9051 114.421 82.8745 118.255C71.8438 122.088 59.9374 122.636 48.6015 119.831L63.0818 61.2995L6.21838 41.2447Z" fill="#85BB65"/>
</svg>
