<svg width="33" height="33" viewBox="0 0 33 33" fill="none" xmlns="http://www.w3.org/2000/svg">
<path d="M16.0018 10.6685C13.0628 10.6685 10.6643 13.067 10.6643 16.0061C10.6643 18.9452 13.0628 21.3437 16.0018 21.3437C18.9409 21.3437 21.3393 18.9452 21.3393 16.0061C21.3393 13.067 18.9409 10.6685 16.0018 10.6685ZM32.0104 16.0061C32.0104 13.7958 32.0304 11.6055 31.9063 9.39912C31.7822 6.83641 31.1976 4.56201 29.3236 2.68803C27.4457 0.810045 25.1753 0.229432 22.6127 0.105301C20.4024 -0.0188302 18.2121 0.00119104 16.0058 0.00119104C13.7955 0.00119104 11.6052 -0.0188302 9.39895 0.105301C6.83629 0.229432 4.56193 0.81405 2.68798 2.68803C0.810031 4.56601 0.229428 6.83641 0.105299 9.39912C-0.0188298 11.6095 0.00119101 13.7998 0.00119101 16.0061C0.00119101 18.2124 -0.0188298 20.4068 0.105299 22.6131C0.229428 25.1758 0.814035 27.4502 2.68798 29.3242C4.56593 31.2022 6.83629 31.7828 9.39895 31.9069C11.6092 32.031 13.7995 32.011 16.0058 32.011C18.2161 32.011 20.4064 32.031 22.6127 31.9069C25.1753 31.7828 27.4497 31.1982 29.3236 29.3242C31.2016 27.4462 31.7822 25.1758 31.9063 22.6131C32.0344 20.4068 32.0104 18.2164 32.0104 16.0061ZM16.0018 24.2188C11.4571 24.2188 7.78928 20.5509 7.78928 16.0061C7.78928 11.4613 11.4571 7.79342 16.0018 7.79342C20.5465 7.79342 24.2143 11.4613 24.2143 16.0061C24.2143 20.5509 20.5465 24.2188 16.0018 24.2188ZM24.5507 9.3751C23.4896 9.3751 22.6327 8.51819 22.6327 7.45707C22.6327 6.39595 23.4896 5.53904 24.5507 5.53904C25.6118 5.53904 26.4687 6.39595 26.4687 7.45707C26.469 7.70904 26.4196 7.95859 26.3233 8.19144C26.227 8.42429 26.0858 8.63586 25.9076 8.81402C25.7294 8.99219 25.5179 9.13346 25.285 9.22974C25.0522 9.32602 24.8026 9.37541 24.5507 9.3751Z" fill="white"/>
</svg>
