<svg width="35" height="35" viewBox="0 0 35 35" fill="none" xmlns="http://www.w3.org/2000/svg">
<path d="M6.6985 0.258057C3.01485 0.258057 0 3.27284 0 6.95655V27.7432C0 31.4268 3.01478 34.4406 6.6985 34.4406H27.4851C31.1688 34.4406 34.1825 31.4269 34.1825 27.7432V6.95655C34.1825 3.27291 31.1688 0.258057 27.4851 0.258057H6.6985ZM8.38327 5.89886C10.1495 5.89886 11.2374 7.05836 11.271 8.58251C11.271 10.073 10.1494 11.2651 8.34911 11.2651H8.31597C6.58336 11.2651 5.46349 10.0731 5.46349 8.58251C5.46349 7.05839 6.61725 5.89886 8.38324 5.89886H8.38327ZM23.6039 13.0225C27.0007 13.0225 29.5471 15.2427 29.5471 20.0137V28.9204H24.3848V20.6109C24.3848 18.5228 23.6377 17.0982 21.7696 17.0982C20.3434 17.0982 19.4933 18.0584 19.1201 18.986C18.9837 19.3178 18.9502 19.7813 18.9502 20.2455V28.9204H13.788C13.788 28.9204 13.8558 14.8443 13.788 13.3868H18.9513V15.5865C19.6373 14.5281 20.8644 13.0225 23.6039 13.0225V13.0225ZM5.76799 13.3879H10.9302V28.9205H5.76799V13.3879Z" fill="white"/>
</svg>
