<svg width="122" height="41" viewBox="0 0 122 41" fill="none" xmlns="http://www.w3.org/2000/svg">
<path d="M16.2353 11.8235V7.41176C16.2353 6.24169 16.7001 5.11954 17.5275 4.29218C18.3548 3.46481 19.477 3 20.6471 3H36.0882C37.2583 3 38.3805 3.46481 39.2078 4.29218C40.0352 5.11954 40.5 6.24169 40.5 7.41176V33.8824C40.5 35.0524 40.0352 36.1746 39.2078 37.0019C38.3805 37.8293 37.2583 38.2941 36.0882 38.2941H20.6471C19.477 38.2941 18.3548 37.8293 17.5275 37.0019C16.7001 36.1746 16.2353 35.0524 16.2353 33.8824V29.4706" stroke="white" stroke-width="4.41177" stroke-linecap="round" stroke-linejoin="round"/>
<path d="M2.9998 20.6471H31.6763M31.6763 20.6471L25.0586 14.0294M31.6763 20.6471L25.0586 27.2647" stroke="white" stroke-width="4.41177" stroke-linecap="round" stroke-linejoin="round"/>
<path d="M55.9151 29.147V12.8652H59.3575V26.3088H66.3377V29.147H55.9151ZM74.0712 29.3855C72.8363 29.3855 71.7683 29.1232 70.8673 28.5985C69.9716 28.0685 69.2799 27.3318 68.7923 26.3883C68.3047 25.4396 68.0609 24.3399 68.0609 23.089C68.0609 21.8276 68.3047 20.7252 68.7923 19.7818C69.2799 18.8331 69.9716 18.0964 70.8673 17.5717C71.7683 17.0417 72.8363 16.7767 74.0712 16.7767C75.3061 16.7767 76.3714 17.0417 77.2671 17.5717C78.1682 18.0964 78.8625 18.8331 79.3501 19.7818C79.8377 20.7252 80.0815 21.8276 80.0815 23.089C80.0815 24.3399 79.8377 25.4396 79.3501 26.3883C78.8625 27.3318 78.1682 28.0685 77.2671 28.5985C76.3714 29.1232 75.3061 29.3855 74.0712 29.3855ZM74.0871 26.762C74.6489 26.762 75.118 26.603 75.4943 26.285C75.8706 25.9617 76.1541 25.5218 76.3449 24.9653C76.541 24.4088 76.6391 23.7754 76.6391 23.0652C76.6391 22.355 76.541 21.7216 76.3449 21.1651C76.1541 20.6086 75.8706 20.1687 75.4943 19.8454C75.118 19.5221 74.6489 19.3604 74.0871 19.3604C73.52 19.3604 73.043 19.5221 72.6561 19.8454C72.2745 20.1687 71.9856 20.6086 71.7895 21.1651C71.5987 21.7216 71.5033 22.355 71.5033 23.0652C71.5033 23.7754 71.5987 24.4088 71.7895 24.9653C71.9856 25.5218 72.2745 25.9617 72.6561 26.285C73.043 26.603 73.52 26.762 74.0871 26.762ZM87.7851 33.9807C86.688 33.9807 85.7473 33.8297 84.9628 33.5275C84.1837 33.2307 83.5636 32.8253 83.1025 32.3112C82.6414 31.7971 82.342 31.2194 82.2042 30.5781L85.3365 30.1567C85.4319 30.4005 85.583 30.6284 85.7897 30.8404C85.9964 31.0524 86.2693 31.222 86.6085 31.3492C86.953 31.4817 87.3717 31.548 87.8646 31.548C88.6014 31.548 89.2082 31.3678 89.6852 31.0074C90.1675 30.6523 90.4087 30.056 90.4087 29.2186V26.9846H90.2656C90.1172 27.3238 89.8946 27.6445 89.5978 27.9466C89.301 28.2487 88.9194 28.4951 88.4529 28.6859C87.9865 28.8767 87.43 28.9721 86.7834 28.9721C85.8665 28.9721 85.0317 28.7601 84.2791 28.3361C83.5318 27.9068 82.9356 27.2523 82.4904 26.3724C82.0505 25.4873 81.8305 24.369 81.8305 23.0175C81.8305 21.6342 82.0558 20.4788 82.5063 19.5512C82.9568 18.6237 83.5557 17.9294 84.303 17.4683C85.0556 17.0072 85.8798 16.7767 86.7755 16.7767C87.4592 16.7767 88.0316 16.8933 88.4927 17.1265C88.9538 17.3544 89.3248 17.6406 89.6057 17.9851C89.8919 18.3243 90.1119 18.6582 90.2656 18.9868H90.3928V16.9357H93.7557V29.2663C93.7557 30.3051 93.5013 31.1743 92.9925 31.8739C92.4837 32.5735 91.7787 33.0982 90.8777 33.448C89.982 33.8032 88.9512 33.9807 87.7851 33.9807ZM87.8567 26.4281C88.4026 26.4281 88.8637 26.2929 89.24 26.0226C89.6216 25.747 89.9131 25.3548 90.1145 24.846C90.3212 24.3319 90.4246 23.7171 90.4246 23.0016C90.4246 22.2861 90.3239 21.666 90.1225 21.1413C89.9211 20.6113 89.6296 20.2005 89.248 19.909C88.8664 19.6175 88.4026 19.4717 87.8567 19.4717C87.3002 19.4717 86.8311 19.6228 86.4495 19.9249C86.0679 20.2217 85.7791 20.6351 85.583 21.1651C85.3869 21.6951 85.2888 22.3073 85.2888 23.0016C85.2888 23.7065 85.3869 24.316 85.583 24.8301C85.7844 25.3389 86.0732 25.7338 86.4495 26.0147C86.8311 26.2903 87.3002 26.4281 87.8567 26.4281ZM101.632 29.147V16.9357H105.019V29.147H101.632ZM103.334 15.3615C102.83 15.3615 102.398 15.1946 102.038 14.8607C101.683 14.5215 101.505 14.116 101.505 13.6443C101.505 13.1779 101.683 12.7777 102.038 12.4438C102.398 12.1046 102.83 11.935 103.334 11.935C103.837 11.935 104.266 12.1046 104.621 12.4438C104.982 12.7777 105.162 13.1779 105.162 13.6443C105.162 14.116 104.982 14.5215 104.621 14.8607C104.266 15.1946 103.837 15.3615 103.334 15.3615ZM111.119 22.0873V29.147H107.732V16.9357H110.96V19.0901H111.103C111.373 18.3799 111.826 17.8181 112.462 17.4047C113.098 16.986 113.869 16.7767 114.776 16.7767C115.624 16.7767 116.363 16.9622 116.994 17.3332C117.625 17.7042 118.115 18.2342 118.465 18.9232C118.814 19.6069 118.989 20.4231 118.989 21.3718V29.147H115.603V21.976C115.608 21.2287 115.417 20.6457 115.03 20.227C114.643 19.803 114.111 19.591 113.432 19.591C112.976 19.591 112.574 19.689 112.224 19.8852C111.879 20.0813 111.609 20.3675 111.413 20.7438C111.222 21.1148 111.124 21.5626 111.119 22.0873Z" fill="white"/>
</svg>
