<svg width="180" height="74" viewBox="0 0 180 74" fill="none" xmlns="http://www.w3.org/2000/svg">
<path d="M87.9191 36.2651V20.0386H92.6712L96.5424 26.3206L100.414 20.0386H105.166V36.2651H100.692V26.9465L96.5424 33.298H96.4496L92.3235 26.9928V36.2651H87.9191ZM114.187 36.5665C110.176 36.5665 107.279 33.6225 107.279 30.0527V30.0063C107.279 26.4365 110.2 23.4462 114.233 23.4462C118.243 23.4462 121.141 26.3901 121.141 29.96V30.0063C121.141 33.5762 118.22 36.5665 114.187 36.5665ZM114.233 32.8344C115.833 32.8344 116.852 31.5594 116.852 30.0527V30.0063C116.852 28.4764 115.74 27.1783 114.187 27.1783C112.587 27.1783 111.567 28.4532 111.567 29.96V30.0063C111.567 31.5363 112.68 32.8344 114.233 32.8344ZM129.399 36.5665C125.389 36.5665 122.491 33.6225 122.491 30.0527V30.0063C122.491 26.4365 125.412 23.4462 129.445 23.4462C133.456 23.4462 136.353 26.3901 136.353 29.96V30.0063C136.353 33.5762 133.432 36.5665 129.399 36.5665ZM129.445 32.8344C131.045 32.8344 132.065 31.5594 132.065 30.0527V30.0063C132.065 28.4764 130.952 27.1783 129.399 27.1783C127.8 27.1783 126.78 28.4532 126.78 29.96V30.0063C126.78 31.5363 127.892 32.8344 129.445 32.8344ZM138.214 36.2651V23.7244H142.618V25.4861C143.429 24.443 144.588 23.4462 146.373 23.4462C149.039 23.4462 150.638 25.2079 150.638 28.0592V36.2651H146.234V29.4732C146.234 28.1055 145.515 27.3637 144.472 27.3637C143.406 27.3637 142.618 28.1055 142.618 29.4732V36.2651H138.214ZM87.9191 62.2651V46.0386H100.9V49.9794H92.4162V52.7379H100.089V56.47H92.4162V62.2651H87.9191ZM102.695 48.5885V45.3432H107.285V48.5885H102.695ZM102.788 62.2651V49.7244H107.192V62.2651H102.788ZM109.645 62.2651V49.7244H114.049V51.4861C114.861 50.443 116.02 49.4462 117.805 49.4462C120.47 49.4462 122.07 51.2079 122.07 54.0592V62.2651H117.666V55.4732C117.666 54.1055 116.947 53.3637 115.904 53.3637C114.838 53.3637 114.049 54.1055 114.049 55.4732V62.2651H109.645ZM127.93 62.5433C125.542 62.5433 123.711 61.1756 123.711 58.6721V58.6258C123.711 56.0295 125.681 54.685 128.625 54.685C129.784 54.685 130.92 54.9168 131.639 55.1718V54.9632C131.639 53.6651 130.827 52.9233 129.135 52.9233C127.814 52.9233 126.794 53.1783 125.681 53.6187L124.777 50.5125C126.191 49.933 127.698 49.5389 129.854 49.5389C132.102 49.5389 133.632 50.0721 134.629 51.0688C135.579 51.9961 135.974 53.2942 135.974 55.0559V62.2651H131.616V60.967C130.758 61.9174 129.576 62.5433 127.93 62.5433ZM129.506 59.7848C130.781 59.7848 131.685 58.9735 131.685 57.7217V57.1422C131.245 56.9568 130.619 56.8177 129.97 56.8177C128.695 56.8177 127.953 57.4435 127.953 58.3708V58.4171C127.953 59.2748 128.602 59.7848 129.506 59.7848ZM138.214 62.2651V49.7244H142.618V51.4861C143.429 50.443 144.588 49.4462 146.373 49.4462C149.039 49.4462 150.638 51.2079 150.638 54.0592V62.2651H146.234V55.4732C146.234 54.1055 145.515 53.3637 144.472 53.3637C143.406 53.3637 142.618 54.1055 142.618 55.4732V62.2651H138.214ZM158.955 62.5665C155.177 62.5665 152.395 59.5994 152.395 56.0527V56.0063C152.395 52.4597 155.154 49.4694 159.118 49.4694C161.691 49.4694 163.406 50.5821 164.472 52.2742L161.482 54.4996C160.879 53.6651 160.207 53.1783 159.141 53.1783C157.727 53.1783 156.684 54.4301 156.684 55.96V56.0063C156.684 57.629 157.704 58.8576 159.187 58.8576C160.23 58.8576 160.903 58.3708 161.598 57.5594L164.542 59.6921C163.383 61.4074 161.714 62.5665 158.955 62.5665ZM171.976 62.5665C168.035 62.5665 165.253 59.9471 165.253 56.0527V56.0063C165.253 52.3438 167.873 49.4462 171.582 49.4462C175.916 49.4462 177.91 52.622 177.91 56.3077C177.91 56.5859 177.91 56.9104 177.887 57.2117H169.495C169.843 58.5794 170.84 59.2748 172.208 59.2748C173.251 59.2748 174.085 58.8808 174.989 57.9999L177.423 60.0166C176.218 61.5465 174.479 62.5665 171.976 62.5665ZM169.426 54.9632H173.784C173.622 53.5724 172.81 52.6915 171.605 52.6915C170.446 52.6915 169.658 53.5955 169.426 54.9632Z" fill="white"/>
<line x1="75.7832" y1="11.5903" x2="75.7832" y2="58.8433" stroke="white" stroke-width="1.78313"/>
<path d="M49.3745 14.3116L52.4069 20.9869L36.2089 28.2699L38.2348 33.0105L54.5466 25.4514L57.4447 31.9782L62.2397 18.6968L49.3745 14.3116Z" fill="white"/>
<path d="M37.8955 46.1188V39.836L53.2 32.855V38.7888L37.8955 46.1188Z" fill="white"/>
<path d="M20.7622 19.6006L39.4733 30.9743" stroke="white" stroke-width="4.77421"/>
<path d="M38 57.6431V52.013L44.4 48.5002V53.986L38 57.6431Z" fill="white"/>
<path d="M31.5302 57.3902C27.2827 56.5343 22.6178 54.4785 19.532 51.4369C16.4462 48.3953 14.3143 44.5199 13.3972 40.2853C12.4801 36.0506 12.8177 31.6405 14.3686 27.5947C15.9195 23.549 18.469 20.1417 21.9817 17.6052L25.3045 21.9041C22.6469 23.8231 20.6065 26.4754 19.4332 29.5362C18.2598 32.597 18.0044 35.9335 18.6982 39.1373C19.392 42.341 21.005 45.2729 23.3395 47.574C25.6741 49.8752 28.3168 51.5706 31.5302 52.2181L31.5302 57.3902Z" fill="white"/>
</svg>
