<svg width="30" height="30" viewBox="0 0 30 30" fill="none" xmlns="http://www.w3.org/2000/svg">
<path d="M24.8572 13.6711H27.343C27.343 7.29507 22.5293 2.48633 16.1445 2.48633V4.97211C21.1932 4.97211 24.8572 8.62994 24.8572 13.6711Z" fill="white"/>
<path d="M16.1578 9.94312C18.7716 9.94312 19.8865 11.058 19.8865 13.6718H22.3722C22.3722 9.66347 20.1661 7.45734 16.1578 7.45734V9.94312ZM20.411 16.7082C20.1721 16.4911 19.8583 16.3753 19.5357 16.3853C19.2131 16.3953 18.9071 16.5302 18.6821 16.7616L15.7079 19.8204C14.9919 19.6837 13.5527 19.235 12.0712 17.7572C10.5896 16.2744 10.1409 14.8314 10.008 14.1205L13.0642 11.145C13.2959 10.9202 13.431 10.6141 13.441 10.2914C13.451 9.96872 13.335 9.65482 13.1177 9.41614L8.52518 4.36627C8.30773 4.12684 8.00551 3.9816 7.68269 3.96141C7.35988 3.94122 7.04191 4.04767 6.79632 4.25814L4.09925 6.57116C3.88437 6.78682 3.75611 7.07385 3.73881 7.3778C3.72017 7.68852 3.3647 15.0489 9.07206 20.7588C14.0511 25.7365 20.2879 26.1007 22.0056 26.1007C22.2566 26.1007 22.4108 26.0933 22.4518 26.0908C22.7557 26.0738 23.0426 25.9449 23.2572 25.7291L25.569 23.0308C25.7796 22.7853 25.8862 22.4675 25.8663 22.1447C25.8463 21.8218 25.7013 21.5195 25.4621 21.3019L20.411 16.7082Z" fill="white"/>
</svg>
