<svg width="33" height="33" viewBox="0 0 33 33" fill="none" xmlns="http://www.w3.org/2000/svg">
<path d="M28.4553 0.686279H3.55691C1.59172 0.686279 0 2.278 0 4.24319V29.1416C0 31.1068 1.59172 32.6985 3.55691 32.6985H28.4553C30.4205 32.6985 32.0122 31.1068 32.0122 29.1416V4.24319C32.0122 2.278 30.4205 0.686279 28.4553 0.686279ZM24.9873 12.2711C24.9873 12.4241 24.9873 12.5753 24.9873 12.8812C24.9873 18.6736 20.5661 25.3819 12.4865 25.3819C10.0483 25.3819 7.76118 24.619 5.77998 23.4007C6.0841 23.4007 6.54294 23.4007 6.84706 23.4007C8.82826 23.4007 10.8112 22.6378 12.3354 21.5707C10.3542 21.5707 8.83003 20.1995 8.22002 18.5224C8.52414 18.5224 8.83003 18.6754 8.98298 18.6754C9.44004 18.6754 9.74594 18.6754 10.203 18.5224C8.2218 18.0654 6.69766 16.3883 6.69766 14.2541C7.30768 14.5582 7.91769 14.7112 8.67887 14.8641C7.45884 13.7971 6.69766 12.577 6.69766 11.0529C6.69766 10.2899 6.85061 9.52876 7.30768 8.91875C9.44182 11.51 12.643 13.34 16.3013 13.4912C16.3013 13.187 16.1484 12.8812 16.1484 12.4241C16.1484 9.98583 18.1296 8.00285 20.5696 8.00285C21.7896 8.00285 23.0079 8.45991 23.7708 9.37404C24.8379 9.22109 25.752 8.76403 26.515 8.30696C26.2109 9.37404 25.4479 10.137 24.5338 10.7452C25.4479 10.5923 26.2109 10.4411 27.125 9.98227C26.5114 10.9 25.7503 11.6611 24.9873 12.2711Z" fill="white"/>
</svg>
