<svg width="22" height="22" viewBox="0 0 22 22" fill="none" xmlns="http://www.w3.org/2000/svg">
<path fill-rule="evenodd" clip-rule="evenodd" d="M6.11111 4.88889C6.11111 3.59227 6.62619 2.34877 7.54303 1.43192C8.45988 0.515078 9.70339 0 11 0C12.2966 0 13.5401 0.515078 14.457 1.43192C15.3738 2.34877 15.8889 3.59227 15.8889 4.88889C15.8889 6.1855 15.3738 7.42901 14.457 8.34586C13.5401 9.2627 12.2966 9.77778 11 9.77778C9.70339 9.77778 8.45988 9.2627 7.54303 8.34586C6.62619 7.42901 6.11111 6.1855 6.11111 4.88889ZM6.11111 12.2222C4.49034 12.2222 2.93596 12.8661 1.7899 14.0121C0.643847 15.1582 0 16.7126 0 18.3333C0 19.3058 0.386309 20.2384 1.07394 20.9261C1.76158 21.6137 2.69421 22 3.66667 22H18.3333C19.3058 22 20.2384 21.6137 20.9261 20.9261C21.6137 20.2384 22 19.3058 22 18.3333C22 16.7126 21.3562 15.1582 20.2101 14.0121C19.064 12.8661 17.5097 12.2222 15.8889 12.2222H6.11111Z" fill="white"/>
</svg>
