<svg width="39" height="39" viewBox="0 0 39 39" fill="none" xmlns="http://www.w3.org/2000/svg">
<g clip-path="url(#clip0_1023_424)">
<path d="M13.586 1.28274C9.68926 2.63454 6.32874 5.20031 3.99803 8.60316C1.66731 12.006 0.489247 16.0666 0.636871 20.1885C0.784495 24.3104 2.25003 28.2763 4.8182 31.5037C7.38638 34.7311 10.9218 37.0499 14.9053 38.1195C18.1347 38.9528 21.5182 38.9894 24.7649 38.2261C27.7062 37.5654 30.4254 36.1523 32.6564 34.125C34.9783 31.9506 36.6637 29.1844 37.5314 26.1239C38.4741 22.7957 38.6419 19.2957 38.0219 15.8925H19.8869V23.4152H30.3895C30.1796 24.6151 29.7298 25.7602 29.067 26.7821C28.4042 27.8041 27.542 28.6818 26.5321 29.3627C25.2498 30.2114 23.804 30.7822 22.2878 31.0385C20.7673 31.3213 19.2076 31.3213 17.6871 31.0385C16.1458 30.7202 14.6878 30.0841 13.4062 29.1708C11.347 27.7131 9.80076 25.6423 8.98823 23.2538C8.16219 20.8205 8.16219 18.1826 8.98823 15.7493C9.5666 14.0437 10.5227 12.4908 11.7853 11.2064C13.2301 9.70962 15.0592 8.63971 17.0721 8.11406C19.0849 7.58841 21.2036 7.62734 23.1958 8.22656C24.7521 8.70408 26.1753 9.53879 27.3517 10.6641C28.536 9.48594 29.7181 8.30477 30.8983 7.12055C31.5077 6.48375 32.1719 5.87742 32.7721 5.22539C30.9761 3.55424 28.868 2.25379 26.5687 1.39852C22.3814 -0.121904 17.7997 -0.162764 13.586 1.28274Z" fill="white"/>
<path d="M13.5859 1.28274C17.7993 -0.163746 22.381 -0.123961 26.5686 1.39547C28.8684 2.25655 30.9755 3.56326 32.769 5.24063C32.1596 5.89266 31.5168 6.50203 30.8952 7.13578C29.713 8.31594 28.5318 9.49203 27.3517 10.6641C26.1753 9.53879 24.7521 8.70408 23.1957 8.22657C21.2042 7.62524 19.0856 7.58406 17.0722 8.10756C15.0588 8.63106 13.2285 9.699 11.7821 11.1942C10.5196 12.4786 9.56349 14.0315 8.98512 15.7371L2.66895 10.8469C4.92975 6.36359 8.8442 2.93422 13.5859 1.28274Z" fill="#E33629"/>
<path d="M0.993038 15.6914C1.33228 14.0088 1.89591 12.3794 2.66882 10.8469L8.98499 15.7493C8.15895 18.1826 8.15895 20.8204 8.98499 23.2537C6.88062 24.8787 4.77523 26.5119 2.66882 28.1531C0.734513 24.3028 0.144583 19.9159 0.993038 15.6914Z" fill="#F8BD00"/>
<path d="M19.8871 15.8895H38.0221C38.6421 19.2926 38.4743 22.7926 37.5316 26.1209C36.6639 29.1814 34.9785 31.9476 32.6566 34.122C30.6182 32.5315 28.5707 30.9532 26.5323 29.3627C27.5429 28.6811 28.4055 27.8024 29.0683 26.7794C29.7311 25.7564 30.1805 24.6101 30.3897 23.4092H19.8871C19.884 20.9046 19.8871 18.397 19.8871 15.8895Z" fill="#587DBD"/>
<path d="M2.66602 28.1531C4.77242 26.5281 6.87781 24.895 8.98219 23.2538C9.79634 25.6431 11.3447 27.7141 13.4062 29.1708C14.6919 30.0799 16.153 30.7108 17.6963 31.0233C19.2168 31.3061 20.7765 31.3061 22.297 31.0233C23.8132 30.767 25.259 30.1962 26.5413 29.3475C28.5797 30.938 30.6272 32.5163 32.6655 34.1067C30.4349 36.1351 27.7157 37.5493 24.7741 38.2109C21.5274 38.9741 18.1439 38.9375 14.9145 38.1042C12.3603 37.4222 9.97448 36.22 7.90664 34.5729C5.71816 32.835 3.93057 30.6452 2.66602 28.1531Z" fill="#319F43"/>
</g>
<defs>
<clipPath id="clip0_1023_424">
<rect width="39" height="39" fill="white"/>
</clipPath>
</defs>
</svg>
