<svg width="34" height="34" viewBox="0 0 34 34" fill="none" xmlns="http://www.w3.org/2000/svg">
<path d="M6.04338 0C2.69561 0 0 2.69561 0 6.04337V27.054C0 30.4017 2.69561 33.0973 6.04338 33.0973H17.431V20.1583H14.0095V15.4999H17.431V11.5199C17.431 8.39308 19.4525 5.52209 24.1094 5.52209C25.9949 5.52209 27.3891 5.7031 27.3891 5.7031L27.2795 10.0533C27.2795 10.0533 25.8575 10.0399 24.3059 10.0399C22.6266 10.0399 22.3573 10.8136 22.3573 12.0982V15.4999H27.4129L27.1926 20.1584H22.3573V33.0974H27.054C30.4018 33.0974 33.0974 30.4018 33.0974 27.054V6.0434C33.0974 2.69564 30.4018 3.30973e-05 27.054 3.30973e-05H6.04335L6.04338 0Z" fill="white"/>
</svg>
