<svg width="342" height="341" viewBox="0 0 342 341" fill="none" xmlns="http://www.w3.org/2000/svg">
<path d="M341.274 166.952C341.274 145.027 336.956 123.318 328.566 103.062C320.175 82.8063 307.878 64.4016 292.375 48.8987C276.872 33.3957 258.467 21.0981 238.212 12.7079C217.956 4.31778 196.246 -0.000579834 174.322 -0.000579834V166.952H341.274Z" fill="#D8E8E8"/>
<path d="M340.348 169.73C340.348 204.987 329.187 239.339 308.463 267.862C287.74 296.385 258.518 317.616 224.987 328.511C191.456 339.406 155.336 339.406 121.805 328.511C88.2734 317.616 59.0519 296.385 38.3284 267.862L173.396 169.73H340.348Z" fill="#F7AD19"/>
<path d="M173.395 0.000396729C142.605 0.000396729 112.415 8.51486 86.1628 24.6025C59.9102 40.6901 38.6178 63.7241 24.6395 91.158C10.6613 118.592 4.54169 149.357 6.95743 180.052C9.37317 210.747 20.2301 240.176 38.3279 265.085L173.395 166.953L173.395 0.000396729Z" fill="#406D96"/>
</svg>
