<svg width="245" height="245" viewBox="0 0 245 245" fill="none" xmlns="http://www.w3.org/2000/svg">
<path d="M163.47 47.3832L173.509 69.4838L119.881 93.5967L126.588 109.292L180.594 84.2649L190.188 105.874L206.064 61.9018L163.47 47.3832Z" fill="white"/>
<path d="M125.465 152.691V131.89L176.135 108.777V128.423L125.465 152.691Z" fill="white"/>
<path d="M68.7393 64.894L130.688 102.55" stroke="white" stroke-width="15.8065"/>
<path d="M125.811 190.846V172.206L147 160.576V178.738L125.811 190.846Z" fill="white"/>
<path d="M104.39 190.008C90.3278 187.174 74.8831 180.368 64.6666 170.298C54.4502 160.228 47.3917 147.397 44.3554 133.377C41.3192 119.357 42.4369 104.756 47.5717 91.361C52.7065 77.9663 61.1471 66.6853 72.7773 58.2875L83.7783 72.5205C74.9795 78.8739 68.2242 87.655 64.3394 97.7888C60.4547 107.923 59.6091 118.969 61.9062 129.576C64.2033 140.183 69.5434 149.89 77.2726 157.509C85.0019 165.127 93.7513 170.741 104.39 172.884L104.39 190.008Z" fill="white"/>
</svg>
