<svg width="179" height="72" viewBox="0 0 179 72" fill="none" xmlns="http://www.w3.org/2000/svg">
<path d="M104.997 17.258V32H101.406V23.159L98.109 32H95.211L91.893 23.138V32H88.302V17.258H92.544L96.681 27.464L100.776 17.258H104.997ZM114.551 32.147C113.165 32.147 111.891 31.825 110.729 31.181C109.581 30.537 108.664 29.641 107.978 28.493C107.306 27.331 106.97 26.029 106.97 24.587C106.97 23.145 107.306 21.85 107.978 20.702C108.664 19.554 109.581 18.658 110.729 18.014C111.891 17.37 113.165 17.048 114.551 17.048C115.937 17.048 117.204 17.37 118.352 18.014C119.514 18.658 120.424 19.554 121.082 20.702C121.754 21.85 122.09 23.145 122.09 24.587C122.09 26.029 121.754 27.331 121.082 28.493C120.41 29.641 119.5 30.537 118.352 31.181C117.204 31.825 115.937 32.147 114.551 32.147ZM114.551 28.871C115.727 28.871 116.665 28.479 117.365 27.695C118.079 26.911 118.436 25.875 118.436 24.587C118.436 23.285 118.079 22.249 117.365 21.479C116.665 20.695 115.727 20.303 114.551 20.303C113.361 20.303 112.409 20.688 111.695 21.458C110.995 22.228 110.645 23.271 110.645 24.587C110.645 25.889 110.995 26.932 111.695 27.716C112.409 28.486 113.361 28.871 114.551 28.871ZM131.06 32.147C129.674 32.147 128.4 31.825 127.238 31.181C126.09 30.537 125.173 29.641 124.487 28.493C123.815 27.331 123.479 26.029 123.479 24.587C123.479 23.145 123.815 21.85 124.487 20.702C125.173 19.554 126.09 18.658 127.238 18.014C128.4 17.37 129.674 17.048 131.06 17.048C132.446 17.048 133.713 17.37 134.861 18.014C136.023 18.658 136.933 19.554 137.591 20.702C138.263 21.85 138.599 23.145 138.599 24.587C138.599 26.029 138.263 27.331 137.591 28.493C136.919 29.641 136.009 30.537 134.861 31.181C133.713 31.825 132.446 32.147 131.06 32.147ZM131.06 28.871C132.236 28.871 133.174 28.479 133.874 27.695C134.588 26.911 134.945 25.875 134.945 24.587C134.945 23.285 134.588 22.249 133.874 21.479C133.174 20.695 132.236 20.303 131.06 20.303C129.87 20.303 128.918 20.688 128.204 21.458C127.504 22.228 127.154 23.271 127.154 24.587C127.154 25.889 127.504 26.932 128.204 27.716C128.918 28.486 129.87 28.871 131.06 28.871ZM153.785 32H150.194L144.188 22.907V32H140.597V17.258H144.188L150.194 26.393V17.258H153.785V32ZM97.899 36.258V39.135H91.893V42.243H96.387V45.036H91.893V51H88.302V36.258H97.899ZM103.377 36.258V51H99.7864V36.258H103.377ZM119.168 51H115.577L109.571 41.907V51H105.98V36.258H109.571L115.577 45.393V36.258H119.168V51ZM130.948 48.396H125.446L124.564 51H120.805L126.139 36.258H130.297L135.631 51H131.83L130.948 48.396ZM130.024 45.624L128.197 40.227L126.391 45.624H130.024ZM150.442 51H146.851L140.845 41.907V51H137.254V36.258H140.845L146.851 45.393V36.258H150.442V51ZM152.436 43.608C152.436 42.152 152.751 40.857 153.381 39.723C154.011 38.575 154.886 37.686 156.006 37.056C157.14 36.412 158.421 36.09 159.849 36.09C161.599 36.09 163.097 36.552 164.343 37.476C165.589 38.4 166.422 39.66 166.842 41.256H162.894C162.6 40.64 162.18 40.171 161.634 39.849C161.102 39.527 160.493 39.366 159.807 39.366C158.701 39.366 157.805 39.751 157.119 40.521C156.433 41.291 156.09 42.32 156.09 43.608C156.09 44.896 156.433 45.925 157.119 46.695C157.805 47.465 158.701 47.85 159.807 47.85C160.493 47.85 161.102 47.689 161.634 47.367C162.18 47.045 162.6 46.576 162.894 45.96H166.842C166.422 47.556 165.589 48.816 164.343 49.74C163.097 50.65 161.599 51.105 159.849 51.105C158.421 51.105 157.14 50.79 156.006 50.16C154.886 49.516 154.011 48.627 153.381 47.493C152.751 46.359 152.436 45.064 152.436 43.608ZM172.632 39.135V42.117H177.441V44.889H172.632V48.123H178.071V51H169.041V36.258H178.071V39.135H172.632Z" fill="white"/>
<line x1="75.7832" y1="11.5898" x2="75.7832" y2="58.8429" stroke="white" stroke-width="1.78313"/>
<path d="M49.3745 14.3118L52.4069 20.9871L36.2089 28.2702L38.2348 33.0108L54.5466 25.4516L57.4447 31.9785L62.2397 18.6971L49.3745 14.3118Z" fill="white"/>
<path d="M37.8955 46.1193V39.8364L53.2 32.8555V38.7893L37.8955 46.1193Z" fill="white"/>
<path d="M20.762 19.6006L39.4731 30.9743" stroke="white" stroke-width="4.77421"/>
<path d="M38.0001 57.6429V52.0128L44.4001 48.5V53.9857L38.0001 57.6429Z" fill="white"/>
<path d="M31.5301 57.3902C27.2827 56.5343 22.6177 54.4785 19.5319 51.4369C16.4461 48.3953 14.3142 44.5199 13.3971 40.2853C12.48 36.0506 12.8176 31.6405 14.3686 27.5947C15.9195 23.549 18.4689 20.1417 21.9817 17.6052L25.3044 21.9041C22.6468 23.8231 20.6065 26.4754 19.4331 29.5362C18.2598 32.597 18.0043 35.9335 18.6982 39.1373C19.392 42.341 21.0049 45.2729 23.3395 47.574C25.674 49.8752 28.3167 51.5706 31.5301 52.2181L31.5301 57.3902Z" fill="white"/>
</svg>
