<svg width="43" height="41" viewBox="0 0 43 41" fill="none" xmlns="http://www.w3.org/2000/svg">
<path d="M16.2353 11.8235V7.41176C16.2353 6.24169 16.7001 5.11954 17.5275 4.29218C18.3548 3.46481 19.477 3 20.6471 3H36.0882C37.2583 3 38.3805 3.46481 39.2078 4.29218C40.0352 5.11954 40.5 6.24169 40.5 7.41176V33.8824C40.5 35.0524 40.0352 36.1746 39.2078 37.0019C38.3805 37.8293 37.2583 38.2941 36.0882 38.2941H20.6471C19.477 38.2941 18.3548 37.8293 17.5275 37.0019C16.7001 36.1746 16.2353 35.0524 16.2353 33.8824V29.4706" stroke="white" stroke-width="4.41177" stroke-linecap="round" stroke-linejoin="round"/>
<path d="M2.9998 20.6471H31.6763M31.6763 20.6471L25.0586 14.0294M31.6763 20.6471L25.0586 27.2647" stroke="white" stroke-width="4.41177" stroke-linecap="round" stroke-linejoin="round"/>
</svg>
