<svg width="33" height="33" viewBox="0 0 33 33" fill="none" xmlns="http://www.w3.org/2000/svg">
<path d="M16.0018 11.0117C13.0628 11.0117 10.6643 13.4103 10.6643 16.3494C10.6643 19.2885 13.0628 21.687 16.0018 21.687C18.9409 21.687 21.3393 19.2885 21.3393 16.3494C21.3393 13.4103 18.9409 11.0117 16.0018 11.0117ZM32.0104 16.3494C32.0104 14.139 32.0304 11.9487 31.9063 9.74238C31.7822 7.17968 31.1976 4.90527 29.3236 3.03129C27.4457 1.15331 25.1753 0.572694 22.6127 0.448563C20.4024 0.324432 18.2121 0.344453 16.0058 0.344453C13.7955 0.344453 11.6052 0.324432 9.39895 0.448563C6.83629 0.572694 4.56193 1.15731 2.68798 3.03129C0.810031 4.90928 0.229428 7.17968 0.105299 9.74238C-0.0188298 11.9527 0.00119101 14.143 0.00119101 16.3494C0.00119101 18.5557 -0.0188298 20.75 0.105299 22.9563C0.229428 25.5191 0.814035 27.7935 2.68798 29.6674C4.56593 31.5454 6.83629 32.126 9.39895 32.2502C11.6092 32.3743 13.7995 32.3543 16.0058 32.3543C18.2161 32.3543 20.4064 32.3743 22.6127 32.2502C25.1753 32.126 27.4497 31.5414 29.3236 29.6674C31.2016 27.7895 31.7822 25.5191 31.9063 22.9563C32.0344 20.75 32.0104 18.5597 32.0104 16.3494ZM16.0018 24.562C11.4571 24.562 7.78928 20.8942 7.78928 16.3494C7.78928 11.8046 11.4571 8.13669 16.0018 8.13669C20.5465 8.13669 24.2143 11.8046 24.2143 16.3494C24.2143 20.8942 20.5465 24.562 16.0018 24.562ZM24.5507 9.71836C23.4896 9.71836 22.6327 8.86145 22.6327 7.80033C22.6327 6.73921 23.4896 5.8823 24.5507 5.8823C25.6118 5.8823 26.4687 6.73921 26.4687 7.80033C26.469 8.0523 26.4196 8.30185 26.3233 8.5347C26.227 8.76755 26.0858 8.97912 25.9076 9.15729C25.7294 9.33545 25.5179 9.47672 25.285 9.573C25.0522 9.66928 24.8026 9.71867 24.5507 9.71836Z" fill="white"/>
</svg>
