<svg width="30" height="31" viewBox="0 0 30 31" fill="none" xmlns="http://www.w3.org/2000/svg">
<path d="M2.34829 8.62897L13.5343 14.6381C13.9102 14.8394 14.3964 14.9349 14.8856 14.9349C15.3748 14.9349 15.861 14.8394 16.2369 14.6381L27.4229 8.62897C28.1522 8.23671 28.8413 6.71094 27.5034 6.71094H2.26925C0.931397 6.71094 1.62046 8.23671 2.34829 8.62897ZM27.7614 11.9147L16.2369 17.9208C15.7298 18.1863 15.3748 18.2176 14.8856 18.2176C14.3964 18.2176 14.0414 18.1863 13.5343 17.9208C13.0272 17.6553 2.89566 12.3442 2.0679 11.9132C1.48622 11.6089 1.49219 11.9654 1.49219 12.2398V23.1171C1.49219 23.7435 2.33636 24.6086 2.98366 24.6086H26.8472C27.4945 24.6086 28.3386 23.7435 28.3386 23.1171V12.2413C28.3386 11.9669 28.3446 11.6104 27.7614 11.9147Z" fill="white"/>
</svg>
