<svg width="40" height="31" viewBox="0 0 40 31" fill="none" xmlns="http://www.w3.org/2000/svg">
<path d="M4.65196 30.5C3.57946 30.5 2.66101 30.1325 1.89661 29.3975C1.13221 28.6625 0.750656 27.78 0.751956 26.75V4.25C0.751956 3.21875 1.13416 2.33563 1.89856 1.60063C2.66296 0.865628 3.58076 0.498753 4.65196 0.500003H35.852C36.9244 0.500003 37.8429 0.867503 38.6073 1.6025C39.3717 2.3375 39.7532 3.22 39.7519 4.25V26.75C39.7519 27.7812 39.3698 28.6644 38.6054 29.3994C37.841 30.1344 36.9231 30.5012 35.852 30.5H4.65196ZM20.252 17.375L4.65196 8V26.75H35.852V8L20.252 17.375ZM20.252 13.625L35.852 4.25H4.65196L20.252 13.625ZM4.65196 8V4.25V26.75V8Z" fill="white"/>
</svg>
