<svg width="35" height="35" viewBox="0 0 35 35" fill="none" xmlns="http://www.w3.org/2000/svg">
<path d="M6.6985 0.601074C3.01485 0.601074 0 3.61585 0 7.29957V28.0862C0 31.7698 3.01478 34.7836 6.6985 34.7836H27.4851C31.1688 34.7836 34.1825 31.7699 34.1825 28.0862V7.29957C34.1825 3.61592 31.1688 0.601074 27.4851 0.601074H6.6985ZM8.38327 6.24188C10.1495 6.24188 11.2374 7.40138 11.271 8.92553C11.271 10.416 10.1494 11.6081 8.34911 11.6081H8.31597C6.58336 11.6081 5.46349 10.4161 5.46349 8.92553C5.46349 7.40141 6.61728 6.24188 8.38327 6.24188ZM23.6039 13.3656C27.0007 13.3656 29.5471 15.5857 29.5471 20.3567V29.2634H24.3848V20.9539C24.3848 18.8658 23.6377 17.4412 21.7696 17.4412C20.3434 17.4412 19.4933 18.4014 19.1201 19.329C18.9837 19.6608 18.9502 20.1243 18.9502 20.5885V29.2634H13.788C13.788 29.2634 13.8558 15.1873 13.788 13.7298H18.9513V15.9295C19.6373 14.8711 20.8644 13.3656 23.6039 13.3656ZM5.76799 13.731H10.9302V29.2635H5.76799V13.731Z" fill="white"/>
</svg>
