<svg width="33" height="33" viewBox="0 0 33 33" fill="none" xmlns="http://www.w3.org/2000/svg">
<path d="M28.4553 0.0297852H3.55691C1.59172 0.0297852 0 1.6215 0 3.5867V28.4851C0 30.4503 1.59172 32.042 3.55691 32.042H28.4553C30.4205 32.042 32.0122 30.4503 32.0122 28.4851V3.5867C32.0122 1.6215 30.4205 0.0297852 28.4553 0.0297852ZM24.9873 11.6146C24.9873 11.7676 24.9873 11.9188 24.9873 12.2247C24.9873 18.0171 20.5661 24.7254 12.4865 24.7254C10.0483 24.7254 7.76118 23.9625 5.77998 22.7442C6.0841 22.7442 6.54294 22.7442 6.84706 22.7442C8.82826 22.7442 10.8112 21.9813 12.3354 20.9142C10.3542 20.9142 8.83003 19.543 8.22002 17.8659C8.52414 17.8659 8.83003 18.0189 8.98298 18.0189C9.44004 18.0189 9.74594 18.0189 10.203 17.8659C8.2218 17.4089 6.69766 15.7318 6.69766 13.5976C7.30768 13.9017 7.91769 14.0547 8.67887 14.2076C7.45884 13.1406 6.69766 11.9205 6.69766 10.3964C6.69766 9.63345 6.85061 8.87227 7.30768 8.26226C9.44182 10.8535 12.643 12.6835 16.3013 12.8347C16.3013 12.5306 16.1484 12.2247 16.1484 11.7676C16.1484 9.32933 18.1296 7.34635 20.5696 7.34635C21.7896 7.34635 23.0079 7.80342 23.7708 8.71754C24.8379 8.5646 25.752 8.10753 26.515 7.65047C26.2109 8.71754 25.4479 9.4805 24.5338 10.0887C25.4479 9.93579 26.2109 9.78462 27.125 9.32578C26.5114 10.2435 25.7503 11.0046 24.9873 11.6146Z" fill="white"/>
</svg>
